<?xml version="1.0" encoding="utf-8"?>
<!-- Generator: Adobe Illustrator 25.3.1, SVG Export Plug-In . SVG Version: 6.00 Build 0)  -->
<svg version="1.1" id="Capa_1" xmlns="http://www.w3.org/2000/svg" xmlns:xlink="http://www.w3.org/1999/xlink" x="0px" y="0px"
	 viewBox="0 0 1440 624" style="enable-background:new 0 0 1440 624;" xml:space="preserve">
<style type="text/css">
	.st0{opacity:0.8;clip-path:url(#SVGID_2_);fill:url(#SVGID_3_);enable-background:new    ;}
	.st1{opacity:0.6;clip-path:url(#SVGID_5_);fill:url(#SVGID_6_);enable-background:new    ;}
	.st2{opacity:0.8;clip-path:url(#SVGID_8_);}
	.st3{fill:url(#SVGID_9_);}
</style>
<image style="overflow:visible;" width="902" height="449" xlink:href="7BF4A38E.jpg"  transform="matrix(1.5949 0 0 1.5949 0 -92.1066)">
</image>
<g id="Capa_1_1_">
</g>
<g>
	<defs>
		<rect id="SVGID_1_" x="332" y="0" width="1106.6" height="821.7"/>
	</defs>
	<clipPath id="SVGID_2_">
		<use xlink:href="#SVGID_1_"  style="overflow:visible;"/>
	</clipPath>
	
		<linearGradient id="SVGID_3_" gradientUnits="userSpaceOnUse" x1="585.1855" y1="252.5112" x2="1438.5972" y2="252.5112" gradientTransform="matrix(1 0 0 -1 0 626)">
		<stop  offset="0" style="stop-color:#F5A984"/>
		<stop  offset="1" style="stop-color:#EE7A5D"/>
	</linearGradient>
	<path class="st0" d="M585.6,373.3c4.1,45.2,30.7,87.4,68.4,108.2c45.5,25.1,100.5,18.8,149.1,36.2c63,22.4,107.7,81.3,163,120.7
		c65.8,46.9,145.3,65.4,222.6,83c51.4,11.7,105.9,23.2,155.3,4.3c67.5-25.8,109.2-112,89.8-186c-32.8-125.5-195-164-240.8-284.8
		c-23.7-62.6-12.6-140.1-52-192.8c-46.6-62.5-135.9-55.6-208.9-39.3C876.6,35,821.5,49.5,766.3,63.9
		c-44.7,11.7-91.4,24.5-125.3,57.9c-41.8,41.2-26.4,75-27.4,124.8C612.8,290.5,581.2,325,585.6,373.3z"/>
</g>
<image style="overflow:visible;" width="4562" height="1790" xlink:href="7BF4A38E.png"  transform="matrix(-0.2124 0 0 0.2124 1438.5929 139.9788)">
</image>
<g>
	<defs>
		<rect id="SVGID_4_" x="332" y="0" width="1106.6" height="821.7"/>
	</defs>
	<clipPath id="SVGID_5_">
		<use xlink:href="#SVGID_4_"  style="overflow:visible;"/>
	</clipPath>
	
		<linearGradient id="SVGID_6_" gradientUnits="userSpaceOnUse" x1="563.2877" y1="538.073" x2="1341.5333" y2="538.073" gradientTransform="matrix(1 0 0 -1 0 626)">
		<stop  offset="0" style="stop-color:#E85761"/>
		<stop  offset="1" style="stop-color:#EE7A5D"/>
	</linearGradient>
	<path class="st1" d="M764.5,255.8c40.4,9.6,82.9,8.3,122.2,22.3c52.9,18.9,93.9,63.1,138.7,98.7s102.2,64.3,155.2,45.5
		c70.6-25.1,94.9-116.9,108.7-195.3c14.7-83.3,29.5-166.6,44.2-249.9c7.8-44.2,15.1-92.4-4.5-132.2c-24.9-50.5-83.4-68.4-136-77.8
		c-208.8-37.2-757.9-64-602.4,333C621,177.8,688,237.6,764.5,255.8z"/>
</g>
<g>
	<defs>
		<rect id="SVGID_7_" x="332" y="0" width="1106.6" height="821.7"/>
	</defs>
	<clipPath id="SVGID_8_">
		<use xlink:href="#SVGID_7_"  style="overflow:visible;"/>
	</clipPath>
	<g class="st2">
		
			<linearGradient id="SVGID_9_" gradientUnits="userSpaceOnUse" x1="1076.6139" y1="394.9855" x2="1582.7511" y2="394.9855" gradientTransform="matrix(1 0 0 -1 0 626)">
			<stop  offset="0" style="stop-color:#F5A984"/>
			<stop  offset="1" style="stop-color:#F4B7AA"/>
		</linearGradient>
		<path class="st3" d="M1077,70c5.2,57.6,39.3,107.2,76.2,149.4c36.9,42.1,78.5,81,104.8,131.4c27.6,52.8,36.6,114.7,61.9,168.8
			c18.7,40.1,47.3,76.2,85,95.7c37.6,19.5,85,20.3,119.9-4.4c61.9-43.7,61.8-139.3,54.9-218.4c-8.7-99-17.3-197.9-26-296.9
			c-6.9-78.5-17.1-164.6-71.4-217.7c-45.3-44.4-113.6-54.6-173-38.3C1225.4-137.4,1067.3-38.5,1077,70z"/>
	</g>
</g>
</svg>
